
<!-- Generator: visioncortex VTracer 0.6.4 -->
<svg version="1.1" xmlns="http://www.w3.org/2000/svg" viewBox="0 0 2000 261" preserveAspectRatio="xMidYMid meet">
<path d="M0 0 C26 0 26 0 31.5 4.625 C32.726 6.716 33.891 8.844 35 11 C36.133 12.615 37.267 14.229 38.44 15.815 C39.726 17.552 40.973 19.313 42.215 21.082 C47.081 27.962 52.132 34.708 57.142 41.483 C59.054 44.073 60.961 46.667 62.867 49.262 C63.811 50.546 63.811 50.546 64.774 51.857 C65.978 53.494 67.18 55.132 68.382 56.77 C68.929 57.514 69.476 58.257 70.039 59.023 C70.754 59.997 70.754 59.997 71.483 60.99 C73.275 63.365 75.133 65.683 77 68 C76.929 67.313 76.857 66.626 76.783 65.917 C75.618 52.677 75.892 39.404 75.938 26.125 C75.943 23.587 75.947 21.049 75.951 18.512 C75.961 12.341 75.981 6.171 76 0 C85.24 0 94.48 0 104 0 C104 37.62 104 75.24 104 114 C95.09 114 86.18 114 77 114 C68.128 104.499 68.128 104.499 65.91 100.219 C63.307 95.456 60.342 91.264 57 87 C56.021 85.706 55.046 84.409 54.074 83.109 C53.58 82.45 53.085 81.791 52.576 81.111 C49.078 76.425 45.618 71.71 42.158 66.996 C37.481 60.63 32.74 54.32 28 48 C28 69.78 28 91.56 28 114 C18.76 114 9.52 114 0 114 C0 76.38 0 38.76 0 0 Z M26 45 C27 47 27 47 27 47 Z " fill="#690000" transform="translate(737,5)"/>
<path d="M0 0 C8.58 0 17.16 0 26 0 C34.175 8.245 34.175 8.245 36.211 12.094 C38.939 16.982 42.1 21.389 45.438 25.875 C46.518 27.376 47.596 28.878 48.672 30.383 C52.663 35.937 56.729 41.436 60.804 46.929 C65.959 53.894 70.961 60.945 76 68 C76 45.56 76 23.12 76 0 C84.91 0 93.82 0 103 0 C103 37.62 103 75.24 103 114 C77 114 77 114 71.25 108.688 C70 106.814 70 106.814 69.195 105.094 C66.693 100.228 63.423 96.037 60.125 91.688 C58.917 90.047 57.711 88.406 56.508 86.762 C53.365 82.487 50.191 78.238 47 74 C40.265 65.051 33.631 56.027 27 47 C27.071 47.925 27.143 48.85 27.217 49.802 C28.169 63.221 28.113 76.617 28.062 90.062 C28.057 92.394 28.053 94.725 28.049 97.057 C28.039 102.704 28.019 108.352 28 114 C18.76 114 9.52 114 0 114 C0 76.38 0 38.76 0 0 Z " fill="#690000" transform="translate(479,5)"/>
<path d="M0 0 C9.838 -0.062 19.676 -0.124 29.812 -0.188 C34.439 -0.228 34.439 -0.228 39.159 -0.27 C41.634 -0.279 44.108 -0.287 46.582 -0.293 C47.843 -0.308 49.104 -0.324 50.403 -0.339 C61.942 -0.343 72.026 1.29 81 9 C87.038 15.422 88.439 22.654 88.25 31.293 C87.478 39.655 82.916 46.274 77 52 C77.58 52.329 78.16 52.657 78.758 52.996 C86.073 57.45 90.15 62.458 93.375 70.375 C95.206 80.997 93.97 90.455 88.375 99.75 C82.861 107.476 74.335 111.735 65.16 113.567 C61.937 114.009 58.879 114.12 55.627 114.114 C53.74 114.113 53.74 114.113 51.815 114.113 C50.507 114.108 49.199 114.103 47.852 114.098 C46.639 114.097 45.426 114.096 44.177 114.095 C39.659 114.089 35.142 114.075 30.625 114.062 C20.519 114.042 10.412 114.021 0 114 C0 76.38 0 38.76 0 0 Z M28 24 C28 30.93 28 37.86 28 45 C31.876 45.108 35.748 45.187 39.625 45.25 C40.719 45.284 41.814 45.317 42.941 45.352 C49.289 45.428 53.206 45.333 58 41 C60.138 38.397 60.13 36.254 59.938 33 C59.43 29.72 59.069 29.071 56.625 26.562 C52.802 24.287 50.043 23.878 45.676 23.902 C44.648 23.906 43.62 23.909 42.561 23.912 C40.953 23.925 40.953 23.925 39.312 23.938 C37.687 23.944 37.687 23.944 36.029 23.951 C33.353 23.963 30.676 23.981 28 24 Z M28 67 C28 74.59 28 82.18 28 90 C32.542 90.081 37.083 90.141 41.625 90.188 C42.91 90.213 44.195 90.238 45.52 90.264 C46.763 90.273 48.007 90.283 49.289 90.293 C50.431 90.309 51.572 90.324 52.749 90.341 C57.215 89.873 60.575 88.376 63.812 85.25 C65.475 82.1 65.875 79.553 66 76 C64.395 72.283 62.418 70.136 59 68 C55.643 66.881 53.118 66.886 49.582 66.902 C48.328 66.906 47.075 66.909 45.783 66.912 C43.818 66.925 43.818 66.925 41.812 66.938 C40.477 66.943 39.142 66.947 37.807 66.951 C34.538 66.963 31.269 66.981 28 67 Z " fill="#6A0000" transform="translate(153,5)"/>
<path d="M0 0 C14.726 -0.124 14.726 -0.124 29.75 -0.25 C32.825 -0.286 35.901 -0.323 39.069 -0.36 C41.541 -0.372 44.013 -0.382 46.484 -0.391 C47.74 -0.411 48.996 -0.432 50.29 -0.453 C61.445 -0.457 71.276 1.598 79.961 8.941 C88.349 17.41 91.842 26.186 92 38 C91.279 47.586 87.784 57.028 81 64 C79.466 65.231 77.918 66.445 76.359 67.645 C75.544 68.273 74.729 68.902 73.89 69.55 C72.954 70.268 72.954 70.268 72 71 C74.31 75.022 76.623 79.043 78.938 83.062 C79.278 83.655 79.619 84.247 79.97 84.857 C84.406 92.564 88.87 100.252 93.56 107.809 C96 111.789 96 111.789 96 114 C85.11 114 74.22 114 63 114 C55.938 101.25 55.938 101.25 53.758 97.31 C52.832 95.641 51.905 93.973 50.958 92.316 C49.295 89.399 47.788 86.532 46.399 83.467 C44.714 79.696 44.714 79.696 41 75 C36.71 74.67 32.42 74.34 28 74 C28 87.2 28 100.4 28 114 C18.76 114 9.52 114 0 114 C0 76.38 0 38.76 0 0 Z M28 24 C28 33.24 28 42.48 28 52 C32.001 52.062 36.003 52.124 40.125 52.188 C42.001 52.228 42.001 52.228 43.915 52.27 C51.89 52.366 51.89 52.366 59 49 C62.21 45.537 63.316 42.687 63.625 38.062 C63.432 33.317 61.99 30.803 58.801 27.375 C54.866 24.371 51.125 23.753 46.262 23.805 C45.3 23.81 44.338 23.815 43.346 23.82 C41.535 23.847 41.535 23.847 39.688 23.875 C33.902 23.937 33.902 23.937 28 24 Z " fill="#FFA739" transform="translate(1328,5)"/>
<path d="M0 0 C26.73 0 53.46 0 81 0 C81 7.92 81 15.84 81 24 C63.84 24 46.68 24 29 24 C29 30.6 29 37.2 29 44 C43.52 44 58.04 44 73 44 C73 51.92 73 59.84 73 68 C58.48 68 43.96 68 29 68 C29 75.26 29 82.52 29 90 C46.49 90 63.98 90 82 90 C82 97.92 82 105.84 82 114 C54.94 114 27.88 114 0 114 C0 76.38 0 38.76 0 0 Z " fill="#FFA63A" transform="translate(1782,5)"/>
<path d="M0 0 C4.155 3.354 8.026 6.539 11 11 C10.972 14.27 9.741 15.27 7.453 17.656 C6.393 18.613 5.325 19.561 4.25 20.5 C3.461 21.21 3.461 21.21 2.656 21.934 C-0.478 24.734 -3.694 27.404 -7 30 C-7.424 29.541 -7.848 29.082 -8.285 28.609 C-14.006 22.625 -19.518 18.368 -28.023 17.797 C-36.472 17.536 -36.472 17.536 -44 21 C-45.437 23.875 -45.382 25.819 -45 29 C-39.985 34.486 -32.148 36.057 -25.15 37.736 C-12.554 40.763 1.287 44.888 8.562 56.492 C13.313 65.588 14.322 74.691 11.812 84.676 C8.618 93.813 2.77 100.927 -5.758 105.469 C-22.305 112.9 -41.355 112.985 -58.336 106.781 C-67.434 102.572 -74.014 96.018 -81 89 C-79.758 84.445 -77.26 82.06 -73.941 78.914 C-71.274 76.284 -68.938 73.41 -66.578 70.504 C-65 69 -65 69 -62 69 C-60.273 70.793 -60.273 70.793 -58.375 73.188 C-52.367 80.212 -44.625 84.542 -35.309 85.301 C-33.392 85.307 -33.392 85.307 -31.438 85.312 C-30.157 85.329 -28.877 85.346 -27.559 85.363 C-22.83 84.881 -20.312 83.312 -17 80 C-17.075 75.933 -17.291 73.751 -20.125 70.75 C-26.384 66.94 -32.613 65.276 -39.688 63.688 C-52.361 60.649 -64.116 56.435 -71.34 44.852 C-75.893 36.134 -76.603 25.781 -74.062 16.25 C-70.734 7.835 -63.088 0.811 -55 -3 C-38.077 -10.107 -15.474 -11.437 0 0 Z " fill="#FFA63A" transform="translate(1177,10)"/>
<path d="M0 0 C4.357 3.382 7.945 6.737 11.297 11.137 C9.903 14.289 8.272 16.398 5.82 18.809 C5.15 19.472 4.48 20.136 3.789 20.82 C3.09 21.502 2.392 22.184 1.672 22.887 C0.612 23.933 0.612 23.933 -0.469 25 C-2.209 26.717 -3.954 28.429 -5.703 30.137 C-6.143 29.743 -6.583 29.349 -7.037 28.943 C-15.429 21.567 -23.386 17.133 -34.84 17.75 C-38.433 18.235 -40.861 18.833 -43.703 21.137 C-45.35 23.992 -45.35 23.992 -45.703 27.137 C-44.418 30.647 -43.665 31.16 -40.281 33.207 C-35.198 35.556 -29.885 36.743 -24.453 38.012 C-15.881 40.134 -8.223 42.373 -0.703 47.137 C-0.099 47.512 0.506 47.887 1.129 48.273 C6.523 52.165 10.225 58.921 12.297 65.137 C12.989 77.727 12.824 87.902 4.441 97.996 C-4.012 106.434 -14.923 110.435 -26.703 111.137 C-27.562 111.19 -28.42 111.242 -29.305 111.297 C-47.331 111.856 -61.596 106.86 -75.426 95.285 C-77.522 93.308 -79.274 91.639 -80.703 89.137 C-80.274 85.848 -79.103 84.146 -76.832 81.789 C-76.258 81.184 -75.683 80.579 -75.092 79.955 C-74.188 79.024 -74.188 79.024 -73.266 78.074 C-72.078 76.835 -70.891 75.594 -69.707 74.352 C-69.179 73.806 -68.651 73.261 -68.108 72.699 C-66.496 70.981 -66.496 70.981 -64.703 68.137 C-61.32 69.265 -60.726 70.1 -58.578 72.824 C-52.165 80.36 -44.91 84.581 -34.949 85.473 C-33.064 85.492 -33.064 85.492 -31.141 85.512 C-29.881 85.54 -28.622 85.568 -27.324 85.598 C-23.102 85.06 -20.973 83.812 -17.703 81.137 C-16.351 78.034 -16.482 76.74 -17.641 73.574 C-22.765 67.518 -31.073 66.073 -38.453 64.262 C-50.188 61.21 -63.09 57.535 -70.199 46.898 C-75.251 38.155 -75.935 29.089 -74.703 19.137 C-71.62 8.828 -65.246 2.458 -56.016 -2.613 C-39.093 -10.454 -15.784 -10.88 0 0 Z " fill="#FFA63A" transform="translate(1964.703125,9.86328125)"/>
<path d="M0 0 C26.4 0 52.8 0 80 0 C80 7.92 80 15.84 80 24 C62.84 24 45.68 24 28 24 C28 30.6 28 37.2 28 44 C42.85 44 57.7 44 73 44 C73 51.92 73 59.84 73 68 C58.15 68 43.3 68 28 68 C28 75.26 28 82.52 28 90 C45.82 90 63.64 90 82 90 C82 97.92 82 105.84 82 114 C54.94 114 27.88 114 0 114 C0 76.38 0 38.76 0 0 Z " fill="#FFA53A" transform="translate(1217,5)"/>
<path d="M0 0 C26.4 0 52.8 0 80 0 C80 7.92 80 15.84 80 24 C62.84 24 45.68 24 28 24 C28 30.6 28 37.2 28 44 C42.85 44 57.7 44 73 44 C73 51.92 73 59.84 73 68 C58.15 68 43.3 68 28 68 C28 75.26 28 82.52 28 90 C45.82 90 63.64 90 82 90 C82 97.92 82 105.84 82 114 C54.94 114 27.88 114 0 114 C0 76.38 0 38.76 0 0 Z " fill="#690000" transform="translate(995,5)"/>
<path d="M0 0 C8.25 0 16.5 0 25 0 C29.5 8.999 29.5 8.999 30.757 12.242 C31.047 12.984 31.337 13.725 31.636 14.49 C31.939 15.277 32.242 16.064 32.555 16.875 C32.889 17.733 33.224 18.592 33.568 19.476 C34.674 22.316 35.774 25.158 36.875 28 C38.059 31.045 39.244 34.089 40.429 37.133 C41.27 39.293 42.11 41.454 42.951 43.614 C46.04 51.552 49.151 59.481 52.275 67.405 C53.039 69.341 53.802 71.277 54.565 73.214 C57.554 80.801 57.554 80.801 60.549 88.387 C61.942 91.916 63.333 95.446 64.723 98.977 C65.142 100.035 65.561 101.093 65.992 102.184 C66.375 103.158 66.758 104.132 67.153 105.135 C67.487 105.982 67.821 106.83 68.166 107.703 C69 110 69 110 70 114 C60.43 114 50.86 114 41 114 C36 102 36 102 33 92 C19.47 92 5.94 92 -8 92 C-8.99 95.3 -9.98 98.6 -11 102 C-13.475 107.94 -13.475 107.94 -16 114 C-25.24 114 -34.48 114 -44 114 C-40.625 102.75 -40.625 102.75 -39.033 98.761 C-38.674 97.854 -38.314 96.947 -37.944 96.012 C-37.56 95.057 -37.176 94.102 -36.781 93.117 C-36.37 92.084 -35.96 91.051 -35.536 89.986 C-34.195 86.614 -32.847 83.245 -31.5 79.875 C-30.566 77.529 -29.632 75.183 -28.698 72.836 C-26.77 67.991 -24.84 63.145 -22.908 58.301 C-18.759 47.889 -14.631 37.469 -10.506 27.047 C-9.265 23.913 -8.022 20.778 -6.779 17.644 C-6.025 15.739 -5.27 13.834 -4.516 11.93 C-4 10.63 -4 10.63 -3.474 9.305 C-3.004 8.117 -3.004 8.117 -2.524 6.906 C-2.252 6.22 -1.98 5.533 -1.7 4.826 C-1.09 3.234 -0.539 1.618 0 0 Z M12 36 C11.809 36.584 11.618 37.168 11.421 37.769 C10.534 40.472 9.642 43.174 8.75 45.875 C8.45 46.793 8.149 47.711 7.84 48.656 C6.013 54.174 4.019 59.561 1.743 64.911 C0.832 67.101 0.832 67.101 1 70 C8.59 70 16.18 70 24 70 C21.563 61.854 21.563 61.854 18.957 53.773 C18.606 52.723 18.254 51.672 17.893 50.59 C17.358 48.998 17.358 48.998 16.812 47.375 C16.444 46.275 16.076 45.176 15.697 44.043 C14.8 41.362 13.9 38.681 13 36 C12.67 36 12.34 36 12 36 Z " fill="#690000" transform="translate(647,5)"/>
<path d="M0 0 C1.563 0.008 1.563 0.008 3.158 0.016 C4.283 0.019 5.407 0.022 6.566 0.026 C7.75 0.034 8.934 0.042 10.154 0.051 C11.342 0.056 12.53 0.06 13.754 0.065 C16.7 0.077 19.646 0.093 22.592 0.114 C23.522 2.483 24.453 4.852 25.384 7.221 C26.233 9.382 27.082 11.544 27.931 13.705 C30.098 19.219 32.264 24.734 34.429 30.248 C35.697 33.477 36.964 36.705 38.232 39.934 C38.49 40.591 38.748 41.248 39.014 41.925 C42.724 51.37 46.443 60.811 50.169 70.249 C51.699 74.125 53.226 78.002 54.754 81.878 C55.982 84.993 57.211 88.107 58.443 91.221 C59.816 94.692 61.185 98.164 62.552 101.637 C62.964 102.674 63.375 103.711 63.799 104.779 C64.169 105.722 64.54 106.664 64.921 107.635 C65.246 108.456 65.57 109.277 65.904 110.124 C66.592 112.114 66.592 112.114 66.592 114.114 C57.022 114.114 47.452 114.114 37.592 114.114 C36.272 110.855 34.952 107.596 33.592 104.239 C33.174 103.213 32.756 102.187 32.326 101.13 C31.839 99.919 31.839 99.919 31.342 98.684 C30.839 97.443 30.839 97.443 30.326 96.177 C29.592 94.114 29.592 94.114 29.592 92.114 C16.062 92.114 2.532 92.114 -11.408 92.114 C-11.738 93.764 -12.068 95.414 -12.408 97.114 C-12.849 98.525 -13.319 99.928 -13.819 101.321 C-14.06 101.998 -14.301 102.676 -14.549 103.375 C-14.853 104.217 -15.158 105.059 -15.471 105.926 C-16.44 108.628 -17.41 111.33 -18.408 114.114 C-27.978 114.114 -37.548 114.114 -47.408 114.114 C-45.537 108.499 -43.651 102.978 -41.494 97.481 C-41.211 96.754 -40.928 96.027 -40.636 95.278 C-39.688 92.847 -38.736 90.418 -37.783 87.989 C-37.452 87.141 -37.121 86.294 -36.779 85.422 C-29.841 67.688 -22.838 49.979 -15.826 32.274 C-14.969 30.109 -14.113 27.944 -13.257 25.778 C-11.9 22.345 -10.54 18.913 -9.178 15.482 C-8.67 14.201 -8.163 12.92 -7.657 11.638 C-6.961 9.878 -6.262 8.119 -5.563 6.36 C-5.169 5.366 -4.776 4.373 -4.37 3.35 C-2.99 0.141 -2.99 0.141 0 0 Z M8.592 37.114 C7.13 41.3 5.673 45.488 4.217 49.676 C3.804 50.857 3.392 52.039 2.967 53.256 C2.367 54.982 2.367 54.982 1.756 56.742 C1.389 57.795 1.022 58.848 0.645 59.932 C-0.469 63.296 -1.435 66.707 -2.408 70.114 C5.182 70.114 12.772 70.114 20.592 70.114 C19.462 63.336 17.403 57.272 15.154 50.801 C14.746 49.596 14.338 48.392 13.918 47.151 C13.325 45.437 13.325 45.437 12.72 43.688 C12.36 42.642 12 41.596 11.629 40.519 C10.834 37.967 10.834 37.967 8.592 37.114 Z " fill="#690000" transform="translate(66.408447265625,4.886474609375)"/>
<path d="M0 0 C3.66 2.641 7.021 5.564 10.301 8.66 C8.939 11.654 7.375 13.908 5.176 16.348 C4.563 17.032 3.951 17.717 3.32 18.422 C2.321 19.53 2.321 19.53 1.301 20.66 C-0.179 22.326 -1.658 23.993 -3.137 25.66 C-4.324 26.994 -5.511 28.327 -6.699 29.66 C-9.602 28.33 -11.789 26.8 -14.199 24.723 C-20.414 20.01 -27.951 18.274 -35.699 18.598 C-42.952 19.719 -49.903 22.66 -54.945 28.07 C-61.866 37.61 -62.81 47.2 -61.699 58.66 C-60.058 66.026 -56.199 72.737 -49.781 76.906 C-40.941 81.574 -31.587 83.272 -21.762 80.973 C-16.176 79.111 -11.763 76.616 -7.258 72.832 C-5.699 71.66 -5.699 71.66 -3.699 71.66 C-2.386 73.341 -2.386 73.341 -0.914 75.676 C-0.384 76.515 0.147 77.354 0.693 78.219 C1.244 79.107 1.796 79.995 2.363 80.91 C2.918 81.783 3.473 82.656 4.045 83.555 C8.532 90.715 8.532 90.715 9.301 94.66 C-3.195 105.306 -19.409 110.552 -35.805 109.938 C-53.852 108.208 -68.677 102.609 -80.691 88.285 C-91.325 74.046 -94.402 57.578 -92.27 40.148 C-89.58 25.325 -82.36 11.372 -69.98 2.417 C-49.281 -11.203 -21.313 -13.639 0 0 Z " fill="#690000" transform="translate(960.69921875,11.33984375)"/>
<path d="M0 0 C1.003 0.006 2.006 0.012 3.039 0.019 C10.875 0.183 17.388 1.29 24.625 4.438 C25.352 4.715 26.079 4.992 26.828 5.277 C32.965 7.899 38.197 12.51 42.625 17.438 C42.625 21.656 40.213 23.374 37.438 26.25 C36.463 27.276 35.491 28.303 34.52 29.332 C34.041 29.838 33.562 30.344 33.069 30.866 C30.822 33.311 28.727 35.867 26.625 38.438 C22.78 36.624 19.424 34.297 15.941 31.875 C8.558 27.293 0.887 26.697 -7.5 28.5 C-15.454 30.784 -20.295 34.34 -24.75 41.312 C-29.734 50.387 -30.888 59.632 -28.125 69.688 C-25.494 77.482 -20.791 83.458 -13.543 87.445 C-4.751 91.391 5.251 91.875 14.375 88.812 C18.823 87.023 22.403 84.686 26.066 81.609 C27.625 80.438 27.625 80.438 29.625 80.438 C30.954 82.226 30.954 82.226 32.445 84.707 C32.98 85.596 33.515 86.485 34.066 87.4 C34.9 88.811 34.9 88.811 35.75 90.25 C36.595 91.643 36.595 91.643 37.457 93.064 C41.625 100.053 41.625 100.053 41.625 103.438 C34.124 112.807 20.36 115.891 9.188 118.125 C-7.971 119.63 -24.183 116.839 -38.227 106.297 C-49.768 96.324 -57.933 83.921 -59.375 68.438 C-60.416 50.449 -58.292 34.122 -45.938 20.062 C-44.436 18.502 -42.917 16.958 -41.375 15.438 C-40.81 14.863 -40.246 14.288 -39.664 13.695 C-28.999 3.654 -14.278 -0.15 0 0 Z " fill="#FFA63A" transform="translate(1715.375,2.5625)"/>
<path d="M0 0 C9.9 0 19.8 0 30 0 C32.561 6.717 35.121 13.435 37.678 20.154 C38.544 22.429 39.411 24.704 40.279 26.978 C44.782 38.785 49.261 50.601 53.625 62.461 C54.139 63.844 54.139 63.844 54.664 65.256 C54.974 66.103 55.283 66.949 55.602 67.822 C55.873 68.56 56.145 69.298 56.424 70.058 C57 72 57 72 57 75 C57.66 75 58.32 75 59 75 C59.239 73.773 59.477 72.547 59.723 71.283 C61.09 65.154 63.256 59.358 65.43 53.477 C66.077 51.704 66.077 51.704 66.738 49.895 C67.879 46.771 69.026 43.649 70.175 40.527 C71.333 37.379 72.485 34.228 73.637 31.078 C75.677 25.5 77.723 19.925 79.773 14.35 C81.524 9.57 83.26 4.784 85 0 C94.9 0 104.8 0 115 0 C112.962 6.114 110.852 12.081 108.45 18.045 C108.108 18.9 107.766 19.755 107.414 20.636 C106.293 23.438 105.168 26.239 104.043 29.039 C103.254 31.008 102.466 32.977 101.678 34.946 C99.606 40.12 97.531 45.292 95.456 50.464 C93.361 55.685 91.27 60.907 89.178 66.129 C86.099 73.813 83.02 81.496 79.938 89.178 C76.62 97.45 73.308 105.724 70 114 C61.75 114 53.5 114 45 114 C41.773 106.901 38.65 99.849 35.76 92.619 C35.37 91.647 34.979 90.675 34.576 89.673 C33.302 86.502 32.032 83.329 30.762 80.156 C29.872 77.937 28.982 75.718 28.093 73.499 C26.238 68.87 24.385 64.24 22.533 59.61 C20.156 53.669 17.773 47.73 15.387 41.792 C13.552 37.221 11.722 32.648 9.893 28.075 C9.015 25.883 8.136 23.691 7.255 21.501 C6.029 18.451 4.81 15.399 3.593 12.346 C3.226 11.439 2.86 10.532 2.483 9.597 C2.154 8.768 1.824 7.938 1.485 7.083 C1.196 6.363 0.908 5.642 0.611 4.9 C0 3 0 3 0 0 Z " fill="#FFA63A" transform="translate(1432,5)"/>
<path d="M0 0 C26.4 0 52.8 0 80 0 C80 8.25 80 16.5 80 25 C63.17 25 46.34 25 29 25 C29 32.26 29 39.52 29 47 C43.52 47 58.04 47 73 47 C73 54.92 73 62.84 73 71 C58.48 71 43.96 71 29 71 C29 85.19 29 99.38 29 114 C19.43 114 9.86 114 0 114 C0 76.38 0 38.76 0 0 Z " fill="#690000" transform="translate(274,5)"/>
<path d="M0 0 C22.11 0 44.22 0 67 0 C67 7.92 67 15.84 67 24 C60.73 24 54.46 24 48 24 C48 45.78 48 67.56 48 90 C54.27 90 60.54 90 67 90 C67 97.92 67 105.84 67 114 C44.89 114 22.78 114 0 114 C0 106.08 0 98.16 0 90 C6.27 90 12.54 90 19 90 C19 68.22 19 46.44 19 24 C12.73 24 6.46 24 0 24 C0 16.08 0 8.16 0 0 Z " fill="#FFA53A" transform="translate(1566,5)"/>
<path d="M0 0 C22.11 0 44.22 0 67 0 C67 7.92 67 15.84 67 24 C60.73 24 54.46 24 48 24 C48 45.78 48 67.56 48 90 C54.27 90 60.54 90 67 90 C67 97.92 67 105.84 67 114 C44.89 114 22.78 114 0 114 C0 106.08 0 98.16 0 90 C6.6 90 13.2 90 20 90 C20 68.22 20 46.44 20 24 C13.4 24 6.8 24 0 24 C0 16.08 0 8.16 0 0 Z " fill="#690000" transform="translate(379,5)"/>
<path d="M0 0 C5.624 1.125 5.624 1.125 7.762 4.324 C8.236 5.017 8.711 5.71 9.2 6.424 C9.691 7.171 10.182 7.918 10.688 8.688 C11.738 10.232 12.789 11.776 13.84 13.32 C14.364 14.101 14.889 14.881 15.429 15.685 C17.807 19.189 20.276 22.625 22.75 26.062 C24.152 28.022 25.555 29.981 27 32 C27.33 21.44 27.66 10.88 28 0 C29.32 0 30.64 0 32 0 C32 13.53 32 27.06 32 41 C26.376 39.875 26.376 39.875 23.73 36.133 C23.151 35.328 22.572 34.524 21.975 33.695 C21.385 32.847 20.795 31.999 20.188 31.125 C19.609 30.315 19.031 29.506 18.436 28.672 C16.615 26.121 14.808 23.56 13 21 C10.36 17.37 7.72 13.74 5 10 C4.67 20.23 4.34 30.46 4 41 C2.68 41 1.36 41 0 41 C0 27.47 0 13.94 0 0 Z " fill="#FFA639" transform="translate(1049,214)"/>
<path d="M0 0 C1.32 0 2.64 0 4 0 C5.505 1.554 5.505 1.554 6.918 3.734 C7.451 4.537 7.984 5.341 8.533 6.168 C9.079 7.02 9.625 7.872 10.188 8.75 C15.196 16.413 20.484 23.646 26 31 C26.33 20.77 26.66 10.54 27 0 C28.32 0 29.64 0 31 0 C31 13.53 31 27.06 31 41 C27 41 27 41 25.619 39.677 C25.207 39.061 24.795 38.444 24.371 37.809 C23.898 37.118 23.426 36.427 22.938 35.715 C22.195 34.587 22.195 34.587 21.438 33.438 C20.38 31.884 19.322 30.332 18.262 28.781 C17.725 27.988 17.188 27.196 16.634 26.379 C14.087 22.672 11.424 19.053 8.75 15.438 C6.399 12.251 6.399 12.251 4 9 C4 19.56 4 30.12 4 41 C2.68 41 1.36 41 0 41 C0 27.47 0 13.94 0 0 Z " fill="#FFA639" transform="translate(1164,214)"/>
<path d="M0 0 C5.324 3.118 8.548 7.199 10.512 13.09 C11.153 20.777 11.349 27.749 6.512 34.09 C0.602 39.704 -4.209 40.604 -12.219 40.469 C-16.956 39.92 -20.044 38.348 -23.488 35.09 C-28.948 28.09 -29.224 21.731 -28.488 13.09 C-26.686 6.841 -23.231 3.367 -17.723 0.016 C-12.389 -2.194 -5.377 -1.967 0 0 Z M-23.426 10.715 C-25.181 16.29 -25.743 21.941 -23.539 27.473 C-21.225 31.429 -18.915 34.55 -14.488 36.09 C-9.217 36.728 -4.927 36.744 -0.051 34.527 C4.842 29.873 6.737 26.267 7.012 19.59 C6.737 12.912 4.842 9.307 -0.051 4.652 C-9.391 0.407 -17.475 2.653 -23.426 10.715 Z " fill="#FFA639" transform="translate(1546.48828125,214.91015625)"/>
<path d="M0 0 C5.012 2.224 8.024 5.558 10.613 10.348 C12.743 16.737 12.809 24.748 9.926 30.91 C6.943 35.9 3.048 38.486 -2.387 40.348 C-9.137 41.232 -15.124 41.136 -20.695 36.938 C-26.056 31.899 -27.703 27.777 -27.949 20.348 C-27.664 12.945 -26.277 8.093 -20.887 2.973 C-14.305 -1.306 -7.701 -2.105 0 0 Z M-21.762 10.41 C-24.193 15.19 -24.255 20.131 -23.387 25.348 C-21.747 29.44 -19.452 32.345 -16.262 35.348 C-11.075 37.152 -5.368 37.607 -0.223 35.434 C3.774 32.797 6.157 29.973 7.613 25.348 C8.529 18.639 8.104 13.469 4.016 7.941 C1.243 4.79 -0.719 3.549 -4.938 3.039 C-12.743 2.691 -16.855 4.083 -21.762 10.41 Z " fill="#FFA639" transform="translate(771.38671875,214.65234375)"/>
<path d="M0 0 C1.559 1.07 1.559 1.07 3.559 3.07 C3.184 5.195 3.184 5.195 2.559 7.07 C0.328 5.996 -1.591 4.956 -3.566 3.445 C-8.357 1.154 -13.486 1.096 -18.539 2.762 C-21.491 4.26 -23.393 6.007 -25.379 8.633 C-27.255 14.704 -27.766 21.257 -24.816 27.07 C-21.629 31.096 -19.173 32.714 -14.043 33.383 C-9.833 33.585 -6.923 33.272 -3.004 31.633 C0.556 28.073 1.277 24.913 2.559 20.07 C-2.061 20.07 -6.681 20.07 -11.441 20.07 C-11.441 19.08 -11.441 18.09 -11.441 17.07 C-5.501 17.07 0.439 17.07 6.559 17.07 C6.559 24.447 6.474 27.375 2.559 33.07 C-2.743 38.113 -7.294 38.42 -14.359 38.352 C-20.111 37.827 -23.88 35.714 -27.816 31.57 C-32.295 24.68 -32.37 18.099 -31.441 10.07 C-29.52 4.928 -26.461 1.323 -21.754 -1.492 C-14.363 -4.559 -6.886 -3.865 0 0 Z " fill="#FFA639" transform="translate(1488.44140625,216.9296875)"/>
<path d="M0 0 C18 0 18 0 24 3 C27.203 6.63 27.512 10.104 27.363 14.777 C26.803 18.205 25.215 20.394 23 23 C22.34 23.33 21.68 23.66 21 24 C22.489 27.896 24.244 31.591 26.125 35.312 C26.664 36.381 27.203 37.45 27.758 38.551 C28.168 39.359 28.578 40.167 29 41 C26.758 41.465 26.758 41.465 24 41 C22.419 38.521 21.148 36.19 19.875 33.562 C17.04 28.019 17.04 28.019 11.973 24.781 C8.619 24.458 8.619 24.458 4 25 C4 30.28 4 35.56 4 41 C2.68 41 1.36 41 0 41 C0 27.47 0 13.94 0 0 Z M4 4 C4 9.61 4 15.22 4 21 C13.115 21.815 13.115 21.815 21.375 18.938 C23.441 15.203 23.751 13.207 23 9 C21.533 5.777 21.533 5.777 18 4 C13.251 3.58 8.786 3.776 4 4 Z " fill="#FFA53A" transform="translate(869,214)"/>
<path d="M0 0 C1.32 0 2.64 0 4 0 C4 6.27 4 12.54 4 19 C11.59 19 19.18 19 27 19 C27 12.73 27 6.46 27 0 C28.32 0 29.64 0 31 0 C31 13.53 31 27.06 31 41 C29.68 41 28.36 41 27 41 C27 35.06 27 29.12 27 23 C19.41 23 11.82 23 4 23 C4 28.94 4 34.88 4 41 C2.68 41 1.36 41 0 41 C0 27.47 0 13.94 0 0 Z " fill="#FFA63B" transform="translate(405,214)"/>
<path d="M0 0 C1.32 0 2.64 0 4 0 C7.344 8.329 10.677 16.663 14 25 C14.318 25.796 14.636 26.592 14.964 27.412 C15.69 29.231 16.408 31.053 17.125 32.875 C17.499 33.821 17.873 34.767 18.258 35.742 C19 38 19 38 19 41 C16.688 41 16.688 41 14 40 C11.979 36.479 11 33.047 11 29 C5.06 29.33 -0.88 29.66 -7 30 C-8.32 33.63 -9.64 37.26 -11 41 C-12.65 41 -14.3 41 -16 41 C-12.43 30.514 -8.738 20.1 -4.625 9.812 C-4.28 8.946 -3.934 8.079 -3.578 7.187 C-1.132 1.132 -1.132 1.132 0 0 Z M1 6 C-0.006 8.602 -1.005 11.206 -2 13.812 C-2.286 14.55 -2.572 15.288 -2.867 16.049 C-3.138 16.761 -3.409 17.473 -3.688 18.207 C-3.939 18.862 -4.19 19.516 -4.449 20.191 C-5.146 22.163 -5.146 22.163 -5 25 C-0.38 25 4.24 25 9 25 C8.049 22.206 7.089 19.415 6.125 16.625 C5.856 15.831 5.586 15.037 5.309 14.219 C5.044 13.458 4.78 12.698 4.508 11.914 C4.267 11.212 4.026 10.511 3.778 9.788 C3.042 7.797 3.042 7.797 1 6 Z " fill="#FFA639" transform="translate(1593,214)"/>
<path d="M0 0 C2.278 0.01 2.278 0.01 5 1 C6.466 3.654 7.523 6.01 8.551 8.832 C8.854 9.62 9.158 10.408 9.471 11.22 C10.11 12.889 10.739 14.561 11.359 16.237 C12.308 18.8 13.285 21.35 14.268 23.9 C14.884 25.523 15.5 27.146 16.113 28.77 C16.404 29.533 16.694 30.297 16.994 31.084 C18.298 34.624 19 37.182 19 41 C17.68 41 16.36 41 15 41 C14.329 39.377 13.663 37.751 13 36.125 C12.629 35.22 12.257 34.315 11.875 33.383 C11 31 11 31 11 29 C5.06 29 -0.88 29 -7 29 C-7.474 30.609 -7.949 32.218 -8.438 33.875 C-9.875 38.75 -9.875 38.75 -11 41 C-12.32 41 -13.64 41 -15 41 C-14.382 36.115 -12.924 31.805 -11.094 27.266 C-10.667 26.187 -10.667 26.187 -10.231 25.086 C-9.326 22.805 -8.413 20.528 -7.5 18.25 C-6.886 16.705 -6.273 15.159 -5.66 13.613 C-1.221 2.443 -1.221 2.443 0 0 Z M1 7 C-0.004 9.624 -1.003 12.249 -2 14.875 C-2.286 15.621 -2.572 16.368 -2.867 17.137 C-4.433 20.96 -4.433 20.96 -5 25 C-0.38 25 4.24 25 9 25 C7.218 18.889 5.307 12.932 3 7 C2.34 7 1.68 7 1 7 Z " fill="#FFA639" transform="translate(1120,214)"/>
<path d="M0 0 C2.659 1.068 2.659 1.068 4.512 4.53 C5.099 6.064 5.664 7.606 6.21 9.154 C6.514 9.967 6.818 10.779 7.13 11.617 C7.769 13.336 8.398 15.06 9.018 16.787 C9.968 19.432 10.945 22.067 11.927 24.701 C12.544 26.372 13.159 28.044 13.773 29.716 C14.063 30.507 14.354 31.298 14.653 32.112 C15.765 35.216 16.659 37.745 16.659 41.068 C15.339 41.068 14.019 41.068 12.659 41.068 C11.989 39.445 11.323 37.819 10.659 36.193 C10.288 35.288 9.917 34.383 9.534 33.451 C8.659 31.068 8.659 31.068 8.659 29.068 C2.719 29.068 -3.221 29.068 -9.341 29.068 C-9.815 30.677 -10.289 32.285 -10.778 33.943 C-12.216 38.818 -12.216 38.818 -13.341 41.068 C-14.661 41.068 -15.981 41.068 -17.341 41.068 C-15.921 33.067 -13.083 25.725 -10.118 18.199 C-9.27 16.048 -8.433 13.892 -7.596 11.736 C-7.063 10.367 -6.528 8.999 -5.993 7.63 C-5.742 6.986 -5.491 6.341 -5.232 5.677 C-3.024 0.088 -3.024 0.088 0 0 Z M-1.341 7.068 C-2.345 9.691 -3.344 12.317 -4.341 14.943 C-4.627 15.689 -4.913 16.436 -5.208 17.205 C-6.774 21.028 -6.774 21.028 -7.341 25.068 C-2.721 25.068 1.899 25.068 6.659 25.068 C4.877 18.957 2.966 13 0.659 7.068 C-0.001 7.068 -0.661 7.068 -1.341 7.068 Z " fill="#FFA639" transform="translate(308.340576171875,213.93212890625)"/>
<path d="M0 0 C2.659 1.068 2.659 1.068 4.512 4.53 C5.099 6.064 5.664 7.606 6.21 9.154 C6.514 9.967 6.818 10.779 7.13 11.617 C7.769 13.336 8.398 15.06 9.018 16.787 C9.968 19.432 10.945 22.067 11.927 24.701 C12.544 26.372 13.159 28.044 13.773 29.716 C14.063 30.507 14.354 31.298 14.653 32.112 C15.765 35.216 16.659 37.745 16.659 41.068 C15.339 41.068 14.019 41.068 12.659 41.068 C11.989 39.445 11.323 37.819 10.659 36.193 C10.288 35.288 9.917 34.383 9.534 33.451 C8.659 31.068 8.659 31.068 8.659 29.068 C2.719 29.068 -3.221 29.068 -9.341 29.068 C-10.052 31.203 -10.052 31.203 -10.778 33.38 C-11.632 35.943 -12.486 38.505 -13.341 41.068 C-14.661 41.068 -15.981 41.068 -17.341 41.068 C-16.703 36.063 -15.249 31.745 -13.434 27.08 C-13.15 26.336 -12.865 25.592 -12.571 24.826 C-11.972 23.264 -11.37 21.703 -10.766 20.144 C-9.838 17.748 -8.919 15.349 -8.001 12.949 C-7.417 11.43 -6.832 9.911 -6.247 8.392 C-5.971 7.672 -5.695 6.953 -5.41 6.211 C-3.031 0.088 -3.031 0.088 0 0 Z M-1.341 7.068 C-2.345 9.691 -3.344 12.317 -4.341 14.943 C-4.627 15.689 -4.913 16.436 -5.208 17.205 C-6.774 21.028 -6.774 21.028 -7.341 25.068 C-2.721 25.068 1.899 25.068 6.659 25.068 C6.226 23.768 5.793 22.469 5.347 21.13 C3.784 16.443 2.222 11.755 0.659 7.068 C-0.001 7.068 -0.661 7.068 -1.341 7.068 Z " fill="#FFA63A" transform="translate(1335.340576171875,213.93212890625)"/>
<path d="M0 0 C1.938 1.625 1.938 1.625 3.938 3.625 C3.562 5.75 3.562 5.75 2.938 7.625 C2.422 7.357 1.906 7.089 1.375 6.812 C0.571 6.421 -0.234 6.029 -1.062 5.625 C-2.156 5.048 -3.249 4.47 -4.375 3.875 C-8.815 2.37 -10.786 2.864 -15.062 4.625 C-17.412 6.523 -17.412 6.523 -17.188 9.75 C-17.126 11.173 -17.126 11.173 -17.062 12.625 C-12.864 14.839 -8.933 16.732 -4.375 18.062 C-0.182 19.426 2.367 20.894 4.938 24.625 C5.91 28.908 5.469 31.752 3.188 35.5 C-1.518 39.944 -5.698 40.108 -12.004 40.016 C-16.454 39.447 -19.844 37.755 -23.062 34.625 C-23.557 33.14 -23.557 33.14 -24.062 31.625 C-22.743 30.965 -21.422 30.305 -20.062 29.625 C-18.763 30.832 -18.763 30.832 -17.438 32.062 C-14.349 34.601 -12.164 35.625 -8.062 35.625 C-5.215 34.746 -2.206 33.768 -0.062 31.625 C0.522 29.254 0.522 29.254 -0.062 26.625 C-3.724 23.268 -7.468 22.13 -12.188 20.688 C-15.752 19.542 -17.891 18.765 -20.812 16.375 C-22.479 12.71 -22.962 9.527 -22.062 5.625 C-17.544 -2.378 -8.031 -3.606 0 0 Z " fill="#FFA639" transform="translate(1706.0625,215.375)"/>
<path d="M0 0 C7.92 0 15.84 0 24 0 C24 1.32 24 2.64 24 4 C17.4 4 10.8 4 4 4 C4 8.62 4 13.24 4 18 C9.61 18 15.22 18 21 18 C21 19.32 21 20.64 21 22 C15.39 22 9.78 22 4 22 C4 26.95 4 31.9 4 37 C10.6 37 17.2 37 24 37 C24 38.32 24 39.64 24 41 C16.08 41 8.16 41 0 41 C0 27.47 0 13.94 0 0 Z " fill="#FFA53A" transform="translate(611,214)"/>
<path d="M0 0 C7.92 0 15.84 0 24 0 C24 1.32 24 2.64 24 4 C17.4 4 10.8 4 4 4 C4 8.62 4 13.24 4 18 C9.61 18 15.22 18 21 18 C21 19.32 21 20.64 21 22 C15.39 22 9.78 22 4 22 C4 26.95 4 31.9 4 37 C10.6 37 17.2 37 24 37 C24 38.32 24 39.64 24 41 C16.08 41 8.16 41 0 41 C0 27.47 0 13.94 0 0 Z " fill="#FFA53A" transform="translate(506,214)"/>
<path d="M0 0 C1.32 0 2.64 0 4 0 C4.022 1.225 4.022 1.225 4.044 2.475 C4.119 6.192 4.215 9.908 4.312 13.625 C4.335 14.91 4.358 16.195 4.381 17.52 C4.416 18.763 4.452 20.007 4.488 21.289 C4.514 22.431 4.541 23.572 4.568 24.749 C5.128 28.962 6.323 32.683 9.75 35.375 C14.093 36.581 17.679 36.587 21.812 34.75 C24.214 32.829 24.907 31.841 26 29 C26.367 25.806 26.367 25.806 26.414 22.266 C26.453 20.97 26.491 19.675 26.531 18.34 C26.563 16.977 26.594 15.613 26.625 14.25 C26.663 12.871 26.702 11.492 26.742 10.113 C26.836 6.742 26.922 3.371 27 0 C28.32 0 29.64 0 31 0 C31.099 4.305 31.172 8.609 31.22 12.915 C31.24 14.378 31.267 15.84 31.302 17.303 C31.351 19.413 31.373 21.522 31.391 23.633 C31.412 24.9 31.433 26.167 31.454 27.473 C30.814 32.443 28.664 35.537 24.938 38.812 C20.52 41.52 16.021 41.585 11 41 C6.34 39.492 3.161 36.779 0.796 32.441 C-1.057 26.759 -0.396 20.482 -0.25 14.562 C-0.23 13.149 -0.212 11.736 -0.195 10.322 C-0.152 6.881 -0.083 3.441 0 0 Z " fill="#FFA639" transform="translate(809,214)"/>
<path d="M0 0 C3.02 1.582 4.115 3.119 5.438 6.25 C3.875 7 3.875 7 1.438 7.25 C-0.234 6.234 -1.905 5.217 -3.57 4.191 C-7.188 2.482 -10.675 2.569 -14.562 3.25 C-19.481 5.477 -21.75 8.362 -23.867 13.176 C-25.495 18.031 -24.954 21.855 -22.938 26.438 C-20.768 30.317 -18.709 32.407 -14.562 34.25 C-8.601 35.082 -4.599 34.657 0.438 31.25 C2.75 31.562 2.75 31.562 4.438 32.25 C3.467 35.066 2.482 36.218 0.062 38 C-6.218 40.166 -12.709 40.236 -19 38.062 C-24.75 33.995 -27.974 30.097 -29.562 23.25 C-30.327 17.261 -29.775 11.46 -26.562 6.25 C-19.291 -1.582 -10.219 -4.772 0 0 Z " fill="#FFA639" transform="translate(1250.5625,215.75)"/>
<path d="M0 0 C3.359 1.76 5.572 3.578 6.746 7.23 C5.121 7.98 5.121 7.98 2.746 8.23 C1.859 7.591 0.972 6.952 0.059 6.293 C-4.23 3.623 -7.326 3.391 -12.254 4.23 C-16.239 5.597 -18.761 7.491 -21.129 11.043 C-23.372 17.399 -23.606 21.923 -21.281 28.211 C-19.467 31.777 -16.736 33.49 -13.254 35.23 C-7.031 35.812 -2.772 35.326 2.746 32.23 C3.736 32.56 4.726 32.89 5.746 33.23 C5.684 35.043 5.684 35.043 4.746 37.23 C-1.214 40.939 -7.387 40.91 -14.254 40.23 C-19.709 38.513 -23.187 34.958 -26.254 30.23 C-28.865 24.484 -28.717 18.285 -27.254 12.23 C-25.077 6.854 -21.701 2.912 -16.629 0.078 C-11.271 -1.834 -5.383 -1.838 0 0 Z " fill="#FFA639" transform="translate(373.25390625,214.76953125)"/>
<path d="M0 0 C1.65 0 3.3 0 5 0 C9.29 10.89 13.58 21.78 18 33 C21.746 22.522 21.746 22.522 25.448 12.028 C25.926 10.717 26.405 9.407 26.887 8.098 C27.12 7.412 27.354 6.726 27.594 6.019 C28.331 4.051 28.331 4.051 30 1 C32.695 0.056 32.695 0.056 35 0 C34.374 5.145 32.788 9.489 30.84 14.242 C30.531 15.011 30.221 15.779 29.902 16.571 C28.92 19.008 27.929 21.441 26.938 23.875 C26.267 25.534 25.597 27.192 24.928 28.852 C23.292 32.904 21.648 36.953 20 41 C17.736 41.021 17.736 41.021 15 40 C13.284 37.414 12.3 34.562 11.23 31.66 C10.905 30.823 10.579 29.986 10.243 29.123 C9.206 26.443 8.197 23.753 7.188 21.062 C6.489 19.253 5.79 17.443 5.088 15.635 C0 2.419 0 2.419 0 0 Z " fill="#FFA539" transform="translate(552,214)"/>
<path d="M0 0 C7.92 0 15.84 0 24 0 C24 1.32 24 2.64 24 4 C17.4 4 10.8 4 4 4 C4 8.62 4 13.24 4 18 C9.61 18 15.22 18 21 18 C21 19.32 21 20.64 21 22 C15.39 22 9.78 22 4 22 C4 28.27 4 34.54 4 41 C2.68 41 1.36 41 0 41 C0 27.47 0 13.94 0 0 Z " fill="#FFA639" transform="translate(957,214)"/>
<path d="M0 0 C2.765 0.045 4.473 0.469 6.444 2.457 C7.972 4.407 9.403 6.4 10.812 8.438 C11.315 9.132 11.817 9.826 12.334 10.541 C16 15.693 16 15.693 16 18 C20.23 14.201 22.777 9.671 25.557 4.781 C26.684 2.922 26.684 2.922 29 0 C31.785 -0.422 31.785 -0.422 34 0 C31.842 4.197 29.691 8.152 26.699 11.824 C19.188 21.181 18.688 29.193 19 41 C17.68 41 16.36 41 15 41 C15.067 39.826 15.134 38.651 15.203 37.441 C15.495 24.075 11.636 16.875 3.274 6.7 C1.705 4.607 0.766 2.495 0 0 Z " fill="#FFA639" transform="translate(691,214)"/>
<path d="M0 0 C5.94 0 11.88 0 18 0 C18 1.32 18 2.64 18 4 C15.69 4 13.38 4 11 4 C11 14.89 11 25.78 11 37 C13.31 37 15.62 37 18 37 C18 38.32 18 39.64 18 41 C12.06 41 6.12 41 0 41 C0 39.68 0 38.36 0 37 C2.31 37 4.62 37 7 37 C7 26.11 7 15.22 7 4 C4.69 4 2.38 4 0 4 C0 2.68 0 1.36 0 0 Z " fill="#FFA53A" transform="translate(1278,214)"/>
<path d="M0 0 C5.94 0 11.88 0 18 0 C18 1.32 18 2.64 18 4 C15.69 4 13.38 4 11 4 C11 14.89 11 25.78 11 37 C13.31 37 15.62 37 18 37 C18 38.32 18 39.64 18 41 C12.06 41 6.12 41 0 41 C0 39.68 0 38.36 0 37 C2.31 37 4.62 37 7 37 C7 26.11 7 15.22 7 4 C4.69 4 2.38 4 0 4 C0 2.68 0 1.36 0 0 Z " fill="#FFA53A" transform="translate(1005,214)"/>
<path d="M0 0 C5.94 0 11.88 0 18 0 C18 1.32 18 2.64 18 4 C15.69 4 13.38 4 11 4 C11 14.89 11 25.78 11 37 C13.31 37 15.62 37 18 37 C18 38.32 18 39.64 18 41 C12.06 41 6.12 41 0 41 C0 39.68 0 38.36 0 37 C2.31 37 4.62 37 7 37 C7 26.11 7 15.22 7 4 C4.69 4 2.38 4 0 4 C0 2.68 0 1.36 0 0 Z " fill="#FFA53A" transform="translate(462,214)"/>
<path d="M0 0 C1.32 0 2.64 0 4 0 C4 12.21 4 24.42 4 37 C10.6 37 17.2 37 24 37 C24 38.32 24 39.64 24 41 C16.08 41 8.16 41 0 41 C0 27.47 0 13.94 0 0 Z " fill="#FFA53A" transform="translate(1636,214)"/>
<path d="M0 0 C1.32 0 2.64 0 4 0 C4 12.21 4 24.42 4 37 C10.6 37 17.2 37 24 37 C24 38.32 24 39.64 24 41 C16.08 41 8.16 41 0 41 C0 27.47 0 13.94 0 0 Z " fill="#FFA53A" transform="translate(1376,214)"/>
</svg>